<?xml version="1.0" encoding="UTF-8"?>
<svg version="1.1" xmlns="http://www.w3.org/2000/svg" viewBox="0 0 900 636">
  <!-- First shape - scaled up by 2x and centered -->
  <path d="M0 0 C1.5876372 -0.00048214 3.1752744 -0.00096428 4.8110218 -0.00146102 C9.90436048 0.0015031 14.99709934 0.03186598 20.09033204 0.06347656 C23.25317096 0.06936432 26.4160138 0.07344094 29.57885742 0.0756836 C41.25201292 0.09657844 52.92508474 0.15242354 64.59814454 0.20410156 C90.70939454 0.28660156 116.82064454 0.36910156 143.72314454 0.45410156 C143.72314454 56.55410156 143.72314454 112.65410156 143.72314454 170.45410156 C125.90314454 170.45410156 108.08314454 170.45410156 89.72314454 170.45410156 C89.72314454 132.17410156 89.72314454 93.89410156 89.72314454 54.45410156 C65.77751954 54.76347656 65.77751954 54.76347656 41.34814454 55.07910156 C36.3228955 55.1288916 31.29764648 55.17868164 26.12011718 55.22998046 C22.1257758 55.29456578 18.13146854 55.361314 14.13720704 55.43066406 C12.0723706 55.44315186 10.00753418 55.45563964 7.88012696 55.46850586 C-6.22047904 55.63045962 -6.22047904 55.63045962 -18.27685546 62.45410156 C-27.06067918 72.4579008 -28.97948362 78.26891414 -28.84716796 91.36816406 C-27.80539036 100.6585337 -22.95907122 106.09700288 -16.15185546 112.07910156 C-10.04892084 115.81960988 -4.88494954 116.71759508 2.11523438 116.8647461 C3.79652436 116.90463654 5.47781434 116.94452698 7.2100525 116.98562622 C8.01648224 117.0190512 9.82291198 117.0524762 11.68408204 117.08691406 C13.54006012 117.12847626 15.3960382 117.17003846 17.30825806 117.2128601 C24.23806934 117.34364802 31.16805798 117.46152682 38.09814454 117.57910156 C42.11769414 117.6654913 46.1372258 117.75272052 50.15673828 117.84082032 C58.01202786 118.05657014 65.86745174 118.2548682 73.72314454 118.45410156 C73.72314454 136.27410156 73.72314454 154.09410156 73.72314454 172.45410156 C65.05888806 172.6388314 56.39939894 172.79778536 47.73486328 172.89355468 C43.4365241 172.93352124 39.13829182 172.98791344 34.84033204 173.05761718 C-27.16071496 173.91079358 -27.16071496 173.91079358 -49.52685546 157.45410156 C-51.12013672 156.31972656 -52.71341796 155.18535156 -54.35498046 154.01660156 C-58.3614098 150.37729524 -60.2486994 147.42635516 -62.27685546 142.45410156 C-63.59685546 142.45410156 -64.91685546 142.45410156 -66.27685546 142.45410156 C-83.53369142 118.03405070 -88.04787458 94.03089330 -83.34716796 64.64160156 C-76.70077368 39.78644658 -61.00825964 21.54843144 -39.02685546 8.70410156 C-26.54359774 1.86461552 -14.08595064 -0.13995312 0 0 Z" fill="#FEFEFE" transform="translate(500.27685546875,233.54589843750)"/>
  
  <!-- Second shape - scaled up by 2x and centered -->
  <path d="M0 0 C2.96675216 0.01273452 2.96675216 0.01273452 5.99343872 0.02572632 C12.26963268 0.05913492 18.54451106 0.1344092 24.8203125 0.2109375 C29.09242928 0.24105248 33.36456632 0.26842556 37.63671876 0.29296876 C48.07382318 0.35376742 58.50810668 0.47124294 68.9453125 0.5859375 C68.9453125 17.7459375 68.9453125 35.9059375 68.9453125 52.5859375 C50.4653125 53.2459375 31.9853125 53.9059375 12.9453125 54.5859375 C12.2853125 58.5459375 11.6253125 62.5059375 10.9453125 66.5859375 C12.68167968 67.44058594 12.68167968 67.44058594 14.453125 68.3125 C29.66141734 76.00921838 39.58412046 83.59833544 47.15625 99.11718750 C51.25530228 111.6470416 51.14143050 127.4357859 47.265625 140.0546875 C39.23918648 155.7292139 26.95303654 165.9496482 10.37689208 171.3162842 C0.05360504 173.7293936 -10.32748942 173.3130779 -20.875 173.171875 C-23.29109588 173.1633853 -25.70719178 173.1548956 -28.19650268 173.1461487 C-35.85803174 173.1127594 -43.51848034 173.0374870 -51.1796875 172.9609375 C-56.39712014 172.9308201 -61.6145694 172.9034475 -66.83203124 172.8789062 C-79.57366046 172.8181354 -92.31297494 172.7006512 -105.0546875 172.5859375 C-105.0546875 154.7659375 -105.0546875 136.9459375 -105.0546875 118.5859375 C-59.5146875 117.5959375 -59.5146875 117.5959375 -13.0546875 116.5859375 C-17.0146875 114.6059375 -20.9746875 112.6259375 -25.0546875 110.5859375 C-25.0546875 109.2659375 -25.0546875 107.9459375 -25.0546875 106.5859375 C-26.21484376 106.35648438 -27.375 106.12703126 -28.5703125 105.890625 C-42.62230512 101.80232750 -51.96503836 90.39483854 -58.796875 78.015625 C-64.83273606 63.50031902 -64.16566744 49.18873730 -59.0546875 34.5859375 C-52.10330276 19.34636328 -40.90101090 8.35822396 -25.31185914 1.85064698 C-17.0201398 -0.61263544 -8.57882936 -0.14009134 0 0 Z" fill="#FEFEFE" transform="translate(337.0546875,233.4140625)"/>
  
  <!-- Third shape - scaled up by 2x and centered -->
  <path d="M0 0 C14.08935926 -1.588362 22.78687282 0.11888282 34.1796875 8.71875 C43.52838634 16.74830728 47.76335106 23.80009664 50 36 C49.77870390 50.31048078 46.88388206 62.17063824 37.2109375 73.14843750 C27.62372472 81.66262890 15.39006214 85.5171910 2.67968750 84.91406250 C-7.96903450 82.83409510 -18.27024542 78.04853702 -25.65625 70.03125 C-28 66 -28 66 -26.75 60 C-22.08027924 49.81151832 -22.08027924 49.81151832 -18 46 C-12.18643070 44.99190234 -6.5026326 45.24927244 -0.625 45.5 C0.96957032 45.53609374 2.56414062 45.57218750 4.20703124 45.609375 C8.13904898 45.70355506 12.06982988 45.84704202 16 46 C13.20654330 36.4921504 8.53025686 32.54563474 0.75 26.625 C-2.89923898 23.83412958 -6.50158394 20.97774878 -10 18 C-10 16.68 -10 15.36 -10 14 C-6.7 14 -3.4 14 0 14 C0 9.38 0 4.76 0 0 Z" fill="#FEFEFE" transform="translate(610,134)"/>
</svg>
